<svg version="1.1" id="themes" xmlns="http://www.w3.org/2000/svg" xmlns:xlink="http://www.w3.org/1999/xlink" x="0px" y="0px"
	 width="50px" height="50px" viewBox="0 0 50 50" enable-background="new 0 0 50 50" xml:space="preserve">
<defs>
    <g id="atmosphere">
        <path d="M38.555,18.569c13.129,1.642,11.019,20.087-3.296,18.406c-1.409-0.165-2.525-0.602-3.847-1.373
	c-2.68,3.424-9.835,2.865-12.086-0.55c-2.5,1.301-5.662,0.001-7.142-1.374c-4.89,1.521-9.592-1.222-9.34-5.494
	c0.226-3.824,5.28-6.567,9.614-4.395c0.717-3.953,2.778-6.562,7.967-6.044C22.584,10.082,37.291,10.009,38.555,18.569z"/>
    </g>
    <g id="biosphere">
        <path d="M44.9,9.498c-0.777,0.926-1.594,1.794-2.724,2.315c-1.546,0.712-3.185,0.91-4.856,0.938
            c-0.128,0.002-0.312-0.075-0.376-0.175c-0.433-0.68-0.841-1.374-1.299-2.133c2.753-0.027,5.525,0.223,7.373-2.371
            c0.645,0.372,1.263,0.728,1.882,1.084C44.9,9.27,44.9,9.384,44.9,9.498z"/>
        <path d="M20.843,50c-0.765-0.456-1.396-0.83-2.075-1.234c0.541-0.977,0.791-2.037,0.497-3.07
            c-0.348-1.226-0.792-2.457-1.406-3.569c-1.188-2.153-2.555-4.206-3.782-6.338c-0.854-1.482-1.455-3.066-1.593-4.806
            c-0.23-2.902,1.542-6.038,5.198-6.897c1.094-0.258,2.244-0.29,3.371-0.399c0.125-0.014,0.321,0.097,0.392,0.21
            c0.419,0.651,0.81,1.321,1.269,2.083c-2.126,0-4.222-0.125-6.16,1.1c3.606,2.164,7.161,4.297,10.877,6.528
            c-0.037-0.613-0.015-1.111-0.105-1.587c-0.337-1.803-1.283-3.339-2.206-4.884c-1.163-1.949-2.372-3.873-3.447-5.871
            c-0.891-1.656-1.374-3.463-1.052-5.367c0.477-2.826,2.52-4.866,5.462-5.459c0.958-0.192,1.95-0.238,2.928-0.325
            c0.157-0.014,0.399,0.069,0.478,0.189c0.434,0.662,0.83,1.349,1.293,2.117c-2.181,0.019-4.336-0.139-6.282,1.204
            c3.663,2.197,7.255,4.354,10.848,6.51c0.062-0.016,0.125-0.031,0.186-0.047c-0.08-0.71-0.088-1.437-0.257-2.125
            c-0.447-1.809-1.48-3.341-2.415-4.921c-1.147-1.936-2.344-3.849-3.349-5.857c-0.944-1.889-1.262-3.923-0.521-6.001
            c0.101-0.283,0.24-0.554,0.369-0.827c0.045-0.097,0.116-0.184,0.197-0.311c0.656,0.391,1.285,0.766,1.959,1.167
            c-1.137,2.064-0.514,4.003,0.479,5.84c0.978,1.814,2.11,3.544,3.177,5.31c1.029,1.704,2.027,3.427,2.444,5.403
            c0.83,3.935-1.214,7.221-5.125,8.155c-1.021,0.244-2.095,0.283-3.146,0.383c-0.165,0.017-0.419-0.096-0.508-0.232
            c-0.427-0.646-0.812-1.317-1.282-2.096c0.811,0,1.533,0.013,2.256-0.002c1.146-0.024,2.263-0.206,3.302-0.716
            c0.838-0.412,1.483-1.024,1.925-1.914c-3.798-2.279-7.574-4.544-11.399-6.839c-0.17,0.3-0.323,0.572-0.497,0.882
            c1.803,1.082,3.565,2.146,5.381,3.238c-0.199,0.337-0.385,0.654-0.599,1.021c-1.678-1.002-3.326-1.986-5.134-3.066
            c0.085,0.654,0.052,1.202,0.236,1.661c0.55,1.362,1.098,2.737,1.808,4.018c1.034,1.87,2.24,3.644,3.31,5.495
            c0.759,1.313,1.333,2.72,1.521,4.248c0.451,3.645-1.65,6.68-5.251,7.485c-1.026,0.23-2.095,0.274-3.148,0.358
            c-0.182,0.015-0.452-0.155-0.563-0.319c-0.408-0.606-0.765-1.245-1.189-1.951c2.111-0.016,4.17,0.094,6.078-1.07
            c-3.604-2.162-7.15-4.29-10.772-6.463c-0.114,0.972,0.026,1.834,0.387,2.612c0.636,1.369,1.331,2.713,2.073,4.028
            c1.042,1.843,2.217,3.617,3.21,5.484c0.907,1.708,1.464,3.55,1.081,5.521C21.424,48.447,21.108,49.177,20.843,50z M27.077,34.779
            c-3.837-2.3-7.608-4.562-11.368-6.816c-0.68,0.782-0.678,0.807,0.105,1.277c1.67,1.003,3.34,2.004,5.01,3.006
            c1.878,1.126,3.756,2.254,5.679,3.408C26.696,35.361,26.868,35.097,27.077,34.779z"/>
        <path d="M14.623,39.5c-5.172,0.268-5.843,0.488-7.357,2.415c-0.639-0.38-1.283-0.763-1.957-1.164
            c0.772-1.354,1.889-2.241,3.277-2.795c1.407-0.562,2.891-0.719,4.393-0.725c0.136-0.001,0.327,0.109,0.401,0.227
            C13.797,38.107,14.186,38.773,14.623,39.5z"/>
    </g>
    <g id="environnement">
        <path d="M38.989,15.498c-0.94-4.158-4.794-7.029-9.141-6.54c-1.38-2.945-4.356-4.88-7.61-4.88
	c-4.644,0-8.423,3.82-8.423,8.516c0,0.56,0.054,1.117,0.164,1.664c-0.375-0.052-0.751-0.079-1.129-0.079
	c-4.645,0-8.424,3.821-8.424,8.516c0,4.693,3.779,8.514,8.424,8.514c0.97,0,1.913-0.175,2.802-0.491
	c1.289,0.963,5.686,4.293,7.719,6.368v7.518c0,0.472,0.381,0.853,0.853,0.853c0.472,0,0.854-0.381,0.854-0.853v-6.868
	c0.637-0.979,3.818-5.601,7.705-6.591c0.058-0.014,0.103-0.047,0.154-0.073c1.323,0.835,2.858,1.299,4.442,1.299
	c4.645,0,8.423-3.819,8.423-8.515C45.802,19.749,42.915,16.264,38.989,15.498z M17.367,29.868c0.666-0.431,1.279-0.946,1.811-1.556
	c1.169,1.122,2.622,1.875,4.194,2.18v4.238C21.438,32.991,18.819,30.964,17.367,29.868z M25.077,34.842V30.64
	c1.958-0.024,3.846-0.745,5.333-2.019c0.217,0.322,0.454,0.63,0.712,0.92c0.083,0.093,0.174,0.175,0.261,0.263
	C28.708,30.838,26.478,33.114,25.077,34.842z"/>
    </g>
    <g id="hydrosphere">
        <path d="M25.078,4.451c0,0-15.743,16.742-15.743,25.44c0,8.695,7.048,15.744,15.745,15.744
	c8.695,0,15.744-7.049,15.744-15.744C40.819,21.193,25.078,4.451,25.078,4.451z M31.578,41.01c-0.391,0.253-0.913,0.142-1.166-0.25
	c-0.252-0.39-0.141-0.913,0.25-1.166c2.249-1.449,3.899-3.66,4.648-6.228c0.129-0.446,0.598-0.704,1.044-0.573
	c0.446,0.13,0.704,0.597,0.574,1.044C36.066,36.794,34.167,39.341,31.578,41.01z"/>
    </g>
    <g id="planete-terre">
        <path d="M24.388,8.598c0.523-0.961,2.267,0.225,1.225,0.918C24.629,9.786,25.193,8.507,24.388,8.598z"/>
        <path d="M17.345,14.722c0.545,0.572,0.779-0.249,1.838,0c0.044,0.962-0.785,1.052-1.53,1.225
            C17.415,15.674,17.323,15.255,17.345,14.722z"/>
        <path d="M21.02,18.09c0.971,0.355,0.753,1.899,1.837,2.143c0.132,0.846-1.141,0.289-1.225,0.919
            C20.805,20.038,21.689,19.923,21.02,18.09z"/>
        <path d="M20.101,19.314c1.262-0.148,0.437,1.494,0,1.531C19.384,20.767,19.925,19.5,20.101,19.314z"/>
        <path d="M34.492,38.604c0.525,0.545-0.668,1.969-1.531,2.143C32.876,39.44,34.079,39.415,34.492,38.604z"/>
        <path d="M21.632,5.231C35.495,3.28,49.312,14.6,44.29,30.951c-2.591,8.435-13.015,16.973-25.413,13.165
            C10.819,41.64,1.66,31.891,5.711,18.702C7.581,12.613,13.742,6.34,21.632,5.231z M17.652,13.19
            c-2.182,0.982-4.002,2.326-5.207,4.287c-1.656-2.335,1.066-4.239,0.919-6.429c-3.163-1.167-1.856,5.325-4.286,5.511
            c-0.033-0.95,0.962-0.875,0.611-2.144c-1.021,1.839-3.58,3.764-2.449,6.736c0.155-1.58,0.649-2.819,1.225-3.979
            c0.733,1.139,1,1.861,1.531,3.673c-0.476,0.443-1.429,0.408-1.837,0.919c0.663-0.053,0.138,1.085,0.306,1.531
            c-2.672,1.067-2.349,5.805-1.225,8.267c2.828,1.459,4.413,4.159,7.041,5.817c-0.606,1.146,0.492,2.107-0.918,2.45
            c10.003,8.423,29.549,1.865,29.395-10.715c-0.754,1.084-1.095,2.582-1.837,3.673c-0.164-1.157-0.251-2.625-1.225-3.673
            c-2.325,0.028-2.648-0.042-3.98-0.919c-0.229,0.942,0.84,0.588,0.612,1.53c1.034,0.018,1.305-0.551,1.837,0.307
            c-0.142,2.307-2.874,2.025-3.674,3.674c0.681,0.135,1.659-0.945,1.837-0.305c-0.734,2.293-4.219,2.893-3.369,5.816
            c-1.997,1.167-2.795,3.532-5.817,3.674c-0.831-1.127-2.102-2.531-0.919-3.98c-0.423-1.037-1.729-1.662-0.917-3.062
            c-2.661-0.708-6.792,0.28-7.655-3.062c-0.687-2.659,1.868-3.921,3.061-6.429c-1.627-0.309-1.234-3.784,1.225-2.755
            c0.512-1.154-1.424-1.396-0.612-1.837c1.741-0.504,2.831-1.66,3.368-3.368c0.038,1.811,1.911,0.799,2.755,1.225
            c0.638-1.575,0.771-1.79,1.837-2.756c-0.681,0.132-1.661,0.704-1.837-0.306c-0.327-1.143,0.761-0.873,0.612-1.837
            c-2.345,0.47-0.488,3.258-2.143,4.286c-0.749-0.538-0.772-1.797-2.145-0.918c0.224-0.937-0.528-0.9-0.305-1.837
            c2.297-2.554,5.022-5.951,7.961-1.837c-0.542,0.071-1.534-0.309-1.224,0.612c1.028,0.558,2.161-0.836,2.142-1.53
            c0.566,1.157,3.11-1.068,3.675-0.307c-0.455-0.259-0.659-0.771-0.613-1.53c0.584,0.131,0.553,0.874,1.53,0.612
            c0.389-0.96-0.302-1.252,0.612-1.838c-2.995-2.465-8.917-5.208-14.696-4.592c-2.418,0.258-5.878,1.276-6.737,2.755
            c0.92-0.519,2.631-1.849,3.981-0.919c-1.63,0.659,1.015-0.281,0.919,0.307C18.846,9.063,18.253,12.338,17.652,13.19z
             M32.043,23.295c-0.943,0.228-0.589-0.84-1.532-0.612c-0.201,0.643-0.811,1.361-0.305,1.836c1.323-0.413,1.942-0.143,3.367,0
            c-0.524-1.093-0.954-1.808-1.53-2.143C31.924,22.813,31.675,22.893,32.043,23.295z M34.798,23.295
            c0.569,0.552,1.122,1.124,0.919,2.449c0.834-0.028,0.616,0.51,1.224,0c-0.219-1.274-1.806-2.456-0.611-3.368
            C35.366,22.231,35.078,22.759,34.798,23.295z M26.836,25.132c-0.842-0.483-1.612-1.042-2.142-1.837
            c-1.648,0.698-2.572,2.123-3.674,3.369c1.64,0.004,2.288-0.981,4.287-0.613c-0.289,1.922,1.755,1.512,2.754,2.144
            c0.484-1.517,2.456,0.263,3.982-0.306c-0.084-0.537,0.861-1.528,0-1.838c-1.082,0.644-2.355-0.062-2.757-1.531
            c-1.061,0.291,0.198,0.99-0.613,1.531c-0.956-1.084-1.345-2.736-3.061-3.062c-0.165,1.389,1.632,0.817,1.531,2.143
            c-0.098,0.354-0.947,1.442-1.225,0.612C26.445,25.761,26.704,25.509,26.836,25.132z M34.492,32.481
            c-0.998-1.045-1.168-2.914-2.449-3.674C32.649,30.042,33.17,32.978,34.492,32.481z"/>
        <path d="M33.574,9.822c0.463,0.005-1.211,2.218,0.306,2.45c-0.133,0.455-0.393-0.121-0.918,0c0-0.715,0-1.429,0-2.144
            C33.316,10.179,33.506,10.062,33.574,9.822z"/>
    </g>
    <g id="systeme-solaire">
        <path d="M30.995,23.909h-1.81c-0.108-0.531-0.316-1.046-0.625-1.514l1.278-1.278c0.336-0.336,0.336-0.88,0-1.218
            c-0.336-0.335-0.881-0.335-1.217,0l-1.277,1.279c-0.469-0.31-0.983-0.518-1.514-0.625v-1.809c0-0.476-0.385-0.861-0.859-0.861
            c-0.477,0-0.862,0.385-0.862,0.861v1.809c-0.53,0.107-1.045,0.315-1.513,0.625l-1.278-1.279c-0.336-0.335-0.882-0.335-1.217,0
            c-0.336,0.338-0.336,0.882,0,1.218l1.278,1.278c-0.309,0.468-0.518,0.982-0.626,1.514h-1.809c-0.476,0-0.861,0.385-0.861,0.86
            c0,0.476,0.385,0.86,0.861,0.86h1.809c0.108,0.531,0.317,1.046,0.626,1.513l-1.278,1.279c-0.336,0.336-0.336,0.88,0,1.216
            c0.335,0.337,0.881,0.337,1.217,0l1.278-1.277c0.468,0.309,0.983,0.517,1.513,0.625v1.809c0,0.475,0.385,0.861,0.862,0.861
            c0.475,0,0.859-0.386,0.859-0.861v-1.809c0.53-0.108,1.045-0.316,1.514-0.625l1.277,1.277l0,0c0.336,0.337,0.881,0.337,1.217,0
            c0.336-0.336,0.336-0.88,0-1.216l-1.278-1.279c0.309-0.467,0.517-0.982,0.625-1.513h1.81c0.476,0,0.86-0.385,0.86-0.86
            C31.855,24.293,31.471,23.909,30.995,23.909z"/>
        <path d="M45.627,24.769c0-11.408-9.249-20.657-20.656-20.657c-11.41,0-20.658,9.249-20.658,20.657
            c0,11.409,9.248,20.658,20.658,20.658c4.804,0,9.223-1.642,12.732-4.392c0.401,0.235,0.852,0.353,1.302,0.353
            c0.661,0,1.322-0.252,1.827-0.756c0.848-0.848,0.983-2.14,0.404-3.129C43.985,33.994,45.627,29.573,45.627,24.769z M24.971,43.704
            c-2.558,0-5.037-0.5-7.372-1.488c-2.254-0.953-4.279-2.318-6.019-4.057c-1.739-1.74-3.104-3.766-4.058-6.02
            c-0.987-2.333-1.488-4.813-1.488-7.37c0-2.556,0.501-5.037,1.488-7.37c0.953-2.255,2.318-4.28,4.058-6.02
            c1.74-1.739,3.765-3.104,6.019-4.059c2.334-0.986,4.814-1.487,7.372-1.487c2.556,0,5.035,0.5,7.369,1.487
            c2.253,0.954,4.281,2.319,6.019,4.059c1.74,1.74,3.104,3.765,4.058,6.02c0.988,2.333,1.488,4.813,1.488,7.37
            c0,2.557-0.5,5.037-1.488,7.37c-0.645,1.529-1.481,2.952-2.496,4.251c-0.294-0.111-0.604-0.167-0.916-0.167
            c-0.661,0-1.322,0.251-1.824,0.756c-0.743,0.741-0.937,1.82-0.59,2.741c-1.301,1.014-2.721,1.851-4.251,2.496
            C30.005,43.204,27.526,43.704,24.971,43.704z"/>
        <path d="M24.971,11.858c-2.66,0-5.13,0.804-7.185,2.182c-0.389-0.238-0.848-0.374-1.336-0.374
            c-1.427,0-2.582,1.156-2.582,2.581c0,0.491,0.136,0.949,0.372,1.338c-1.378,2.055-2.183,4.525-2.183,7.183
            c0,7.13,5.782,12.911,12.913,12.911c7.129,0,12.911-5.78,12.911-12.911S32.1,11.858,24.971,11.858z M32.882,32.681
            c-1.028,1.029-2.226,1.835-3.557,2.399c-1.379,0.583-2.844,0.878-4.354,0.878c-1.513,0-2.978-0.296-4.355-0.878
            c-1.333-0.564-2.53-1.371-3.558-2.399c-1.028-1.027-1.837-2.225-2.399-3.557c-0.583-1.379-0.878-2.844-0.878-4.355
            c0-1.511,0.296-2.976,0.878-4.355c0.257-0.606,0.564-1.186,0.922-1.733c0.271,0.097,0.564,0.15,0.869,0.15
            c1.425,0,2.583-1.156,2.583-2.583c0-0.304-0.056-0.597-0.152-0.868c0.547-0.356,1.127-0.665,1.734-0.922
            c1.378-0.583,2.843-0.879,4.355-0.879c1.51,0,2.975,0.296,4.354,0.879c1.332,0.563,2.529,1.37,3.557,2.398s1.834,2.225,2.399,3.557
            c0.582,1.379,0.877,2.844,0.877,4.355c0,1.511-0.295,2.977-0.877,4.355C34.716,30.456,33.91,31.653,32.882,32.681z"/>
    </g>
    <g id="univers">
        <path d="M2.888,27.932c0-10.388,8.332-20.303,19.512-20.303
	c8.911,0,16.083,6.118,16.083,15.293c0,5.484-4.271,11.601-10.809,11.601c-5.801,0-8.965-3.691-8.965-8.173
	c-0.949,0-1.583,1.582-1.583,3.163c0,4.378,5.222,8.965,11.339,8.965c8.016,0,16.348-7.33,16.348-18.193
	c0-6.75-3.27-12.393-6.064-15.82c3.426,2.9,8.437,8.648,8.437,17.666c0,10.389-8.332,20.303-19.512,20.303
	c-8.913,0-16.085-6.117-16.085-15.293c0-5.484,4.272-11.602,10.811-11.602c5.8,0,8.965,3.691,8.965,8.174
	c0.949,0,1.581-1.582,1.581-3.164c0-4.377-5.219-8.965-11.337-8.965c-8.015,0-16.347,7.33-16.347,18.193
	c0,6.75,3.27,12.393,6.064,15.82C7.897,42.697,2.888,36.95,2.888,27.932z"/>
    </g>

    
</defs>
</svg>